<svg width="518" height="143" viewBox="0 0 518 143" fill="none" xmlns="http://www.w3.org/2000/svg">
<path d="M48.5 6.99999C58 6.99999 66.25 8.59999 73.25 11.8C80.25 14.9 85.65 19.4 89.45 25.3C93.25 31.1 95.15 37.95 95.15 45.85C95.15 53.75 93.25 60.6 89.45 66.4C85.65 72.2 80.25 76.7 73.25 79.9C66.25 83 58 84.55 48.5 84.55H30.2V112H0.5V6.99999H48.5ZM46.7 61.15C52.8 61.15 57.4 59.85 60.5 57.25C63.6 54.55 65.15 50.75 65.15 45.85C65.15 40.95 63.6 37.15 60.5 34.45C57.4 31.75 52.8 30.4 46.7 30.4H30.2V61.15H46.7ZM136.163 40.45C139.063 36.75 142.813 34 147.413 32.2C152.113 30.3 157.463 29.35 163.463 29.35V55C160.863 54.7 158.713 54.55 157.013 54.55C150.913 54.55 146.113 56.2 142.613 59.5C139.213 62.8 137.513 67.85 137.513 74.65V112H109.013V30.7H136.163V40.45ZM257.592 71.5C257.592 71.7 257.442 74.05 257.142 78.55H198.042C199.242 82.75 201.542 86 204.942 88.3C208.442 90.5 212.792 91.6 217.992 91.6C221.892 91.6 225.242 91.05 228.042 89.95C230.942 88.85 233.842 87.05 236.742 84.55L251.742 100.15C243.842 108.95 232.292 113.35 217.092 113.35C207.592 113.35 199.242 111.55 192.042 107.95C184.842 104.35 179.242 99.35 175.242 92.95C171.342 86.55 169.392 79.3 169.392 71.2C169.392 63.2 171.292 56.05 175.092 49.75C178.992 43.35 184.342 38.35 191.142 34.75C197.942 31.15 205.592 29.35 214.092 29.35C222.192 29.35 229.542 31.05 236.142 34.45C242.742 37.75 247.942 42.6 251.742 49C255.642 55.3 257.592 62.8 257.592 71.5ZM214.242 49.6C209.842 49.6 206.142 50.85 203.142 53.35C200.242 55.85 198.392 59.25 197.592 63.55H230.892C230.092 59.25 228.192 55.85 225.192 53.35C222.292 50.85 218.642 49.6 214.242 49.6ZM300.282 113.35C293.482 113.35 286.782 112.6 280.182 111.1C273.582 109.5 268.282 107.45 264.282 104.95L272.832 85.45C276.532 87.75 280.932 89.6 286.032 91C291.132 92.3 296.182 92.95 301.182 92.95C305.782 92.95 309.032 92.5 310.932 91.6C312.932 90.6 313.932 89.2 313.932 87.4C313.932 85.6 312.732 84.35 310.332 83.65C308.032 82.85 304.332 82.1 299.232 81.4C292.732 80.6 287.182 79.55 282.582 78.25C278.082 76.95 274.182 74.55 270.882 71.05C267.582 67.55 265.932 62.65 265.932 56.35C265.932 51.15 267.482 46.55 270.582 42.55C273.682 38.45 278.182 35.25 284.082 32.95C290.082 30.55 297.232 29.35 305.532 29.35C311.432 29.35 317.282 29.95 323.082 31.15C328.882 32.35 333.732 34.05 337.632 36.25L329.082 55.6C321.882 51.6 314.082 49.6 305.682 49.6C301.182 49.6 297.882 50.15 295.782 51.25C293.682 52.25 292.632 53.6 292.632 55.3C292.632 57.2 293.782 58.55 296.082 59.35C298.382 60.05 302.182 60.8 307.482 61.6C314.182 62.6 319.732 63.75 324.132 65.05C328.532 66.35 332.332 68.75 335.532 72.25C338.832 75.65 340.482 80.45 340.482 86.65C340.482 91.75 338.932 96.35 335.832 100.45C332.732 104.45 328.132 107.6 322.032 109.9C316.032 112.2 308.782 113.35 300.282 113.35Z" fill="black"/>
<path d="M352.763 0.699993H381.263V112H352.763V0.699993ZM485.435 30.7L450.335 115.3C446.235 125.3 441.235 132.3 435.335 136.3C429.435 140.4 422.235 142.45 413.735 142.45C409.435 142.45 405.085 141.75 400.685 140.35C396.385 139.05 392.885 137.3 390.185 135.1L400.085 115.15C401.685 116.65 403.585 117.8 405.785 118.6C408.085 119.5 410.385 119.95 412.685 119.95C415.385 119.95 417.585 119.4 419.285 118.3C421.085 117.2 422.585 115.45 423.785 113.05L388.985 30.7H418.235L438.185 80.35L458.285 30.7H485.435ZM500.115 113.35C495.315 113.35 491.265 111.75 487.965 108.55C484.665 105.35 483.015 101.3 483.015 96.4C483.015 91.4 484.615 87.35 487.815 84.25C491.115 81.15 495.215 79.6 500.115 79.6C505.115 79.6 509.215 81.15 512.415 84.25C515.615 87.35 517.215 91.4 517.215 96.4C517.215 101.3 515.565 105.35 512.265 108.55C509.065 111.75 505.015 113.35 500.115 113.35Z" fill="#0070F3"/>
</svg>
